<?xml version="1.0" encoding="UTF-8"?><svg xmlns="http://www.w3.org/2000/svg" viewBox="0 0 32.786 32.786"><g id="a"/><g id="b"><g id="c"><g id="d"><g id="e"><g><circle cx="16.393" cy="16.393" r="16.0879" fill="#feb500" stroke="#2d3a68" stroke-miterlimit="10" stroke-width=".6102"/><path d="M25.8105,20.6187l-4.4394-4.4394,4.2245-4.2245c.5768-.5768,.5768-1.5206,0-2.0974l-3.0928-3.0928c-.5768-.5768-1.5206-.5768-2.0974,0l-4.2245,4.2245-4.0135-4.0135c-.5768-.5768-1.5194-.5768-2.0961,0l-3.0945,3.0945c-.5767,.5767-.5767,1.5194,0,2.0961l4.0135,4.0135-4.2257,4.2257c-.5768,.5768-.5768,1.5206,0,2.0974l3.0928,3.0928c.5768,.5768,1.5206,.5768,2.0974,0l4.2257-4.2257,4.4394,4.4394c.5768,.5768,1.5194,.5768,2.0961,0l3.0945-3.0945c.5767-.5767,.5767-1.5194,0-2.0961Z" fill="#fe7d00" stroke="#2d3a68" stroke-miterlimit="10" stroke-width=".6102"/></g></g></g></g></g></svg>