<?xml version="1.0" encoding="UTF-8"?><svg xmlns="http://www.w3.org/2000/svg" xmlns:xlink="http://www.w3.org/1999/xlink" viewBox="0 0 40.3519 40.8142"><defs><style>.i{fill:#485373;}.i,.j{stroke:#2d3a68;stroke-miterlimit:10;stroke-width:.5577px;}.j{fill:none;}.k{filter:url(#f);}</style><filter id="f" filterUnits="userSpaceOnUse"><feOffset dx="0" dy="2.2308"/><feGaussianBlur result="g" stdDeviation="0"/><feFlood flood-color="#2d3a68" flood-opacity="1"/><feComposite in2="g" operator="in"/><feComposite in="SourceGraphic"/></filter></defs><g id="a"/><g id="b"><g id="c"><g id="d"><g id="e"><g id="h" filter="#f"><g><path d="M16.4346,10.7856v-.0335c0-.6778,.5495-1.2273,1.2273-1.2273h1.3828c.4989-.0005,.9478-.3029,1.1357-.765,0-.0049,.0041-.0106,.0065-.0155,.1934-.4608,.0893-.9928-.2635-1.3468l-.9819-.977c-.477-.4789-.477-1.2533,0-1.7322l1.9015-1.9015c.4788-.4764,1.2526-.4764,1.7314,0l.9778,.9819c.3547,.3511,.886,.4538,1.346,.2602l.0155-.0065c.4624-.1876,.7652-.6366,.7659-1.1357V1.5062c0-.6778,.5495-1.2273,1.2273-1.2273h2.6895c.6778,0,1.2273,.5495,1.2273,1.2273v1.3828c.0005,.4989,.3029,.9478,.765,1.1357l.0147,.0065c.4602,.1936,.9918,.0909,1.3468-.2602l.9819-.9819c.4788-.4764,1.2526-.4764,1.7314,0l1.9015,1.9015c.477,.4789,.477,1.2533,0,1.7322l-.9835,.9745c-.3516,.3548-.4541,.8868-.2594,1.3468l.0057,.0155c.1878,.4618,.6363,.7642,1.1349,.765h1.3828c.6778,0,1.2273,.5495,1.2273,1.2273h0v2.6887c0,.6778-.5495,1.2273-1.2273,1.2273h-1.3828c-.4988,.001-.9473,.3037-1.1349,.7659l-.0057,.0147c-.1958,.4599-.0933,.9926,.2594,1.3468l.9778,.9778c.4764,.4788,.4764,1.2526,0,1.7314l-1.9015,1.9015c-.4788,.4764-1.2526,.4764-1.7314,0l-.9819-.9778c-.354-.3529-.8868-.4558-1.3468-.2602l-.0147,.0057c-.4597,.1888-.7601,.6363-.7609,1.1332v1.3828c-.002,.511-.3204,.9673-.7994,1.1455h-6.3303L14.6373,14.7802l1.7973-3.9946Z" fill="#485373" stroke="#2d3a68" stroke-miterlimit="10" stroke-width=".5577"/><circle cx="28.2522" cy="12.0964" r="3.9839" fill="none" stroke="#2d3a68" stroke-miterlimit="10" stroke-width=".5577"/></g><g><path d="M30.0286,27.3628v-3.3948c0-.8514-.6902-1.5415-1.5415-1.5415h-1.7404c-.6279-.0012-1.1929-.3817-1.4303-.963l-.0082-.0196c-.2432-.5791-.1141-1.2477,.3273-1.6945l1.2274-1.2274c.6016-.6016,.6019-1.5768,.0008-2.1788l-.0008-.0008-2.3858-2.3973c-.601-.6039-1.5782-.6051-2.1806-.0026l-.0008,.0008-1.2273,1.2273c-.4469,.4414-1.1154,.5705-1.6945,.3273l-.0196-.0082c-.5808-.2371-.9612-.8013-.963-1.4286v-1.7338c0-.8514-.6902-1.5415-1.5415-1.5415h-3.3883c-.8514,0-1.5415,.6902-1.5415,1.5415v1.7404c-.0012,.6279-.3817,1.1929-.963,1.4302l-.0196,.0082c-.5791,.2432-1.2477,.1141-1.6945-.3273l-1.2282-1.2282c-.6015-.6015-1.5766-.6015-2.178,0l-.0008,.0008-2.3954,2.3864c-.6034,.6011-.6043,1.5778-.0021,2.1801l.0008,.0008,1.2273,1.2273c.4414,.4469,.5705,1.1154,.3273,1.6945l-.0082,.0196c-.2371,.5808-.8013,.9612-1.4286,.963H1.8188c-.8511,0-1.5408,.6904-1.5399,1.5415v3.3883c0,.8514,.6902,1.5415,1.5415,1.5415h1.7404c.6274,.0019,1.1915,.3822,1.4286,.963l.0082,.0196c.2432,.5791,.1141,1.2477-.3273,1.6945l-1.2273,1.2273c-.6019,.6019-.6019,1.5778,0,2.1797h0l2.3933,2.3933c.6016,.6016,1.5768,.6019,2.1788,.0008l.0008-.0008,1.2273-1.2273c.4469-.4414,1.1154-.5705,1.6945-.3273l.0196,.0082c.5808,.2371,.9612,.8013,.963,1.4286v1.7404c0,.8509,.6898,1.5407,1.5407,1.5407h3.385c.8514,0,1.5415-.6902,1.5415-1.5415v-1.7404c.0019-.6273,.3822-1.1915,.963-1.4286l.0196-.0082c.5791-.2432,1.2477-.1141,1.6945,.3273l1.2282,1.2282c.6015,.6015,1.5766,.6015,2.178,0l.0008-.0008,2.3976-2.3878c.6036-.6011,.6046-1.578,.0022-2.1803l-.0008-.0008-1.2273-1.2273c-.4414-.4469-.5705-1.1154-.3273-1.6945l.0082-.0196c.2371-.5808,.8013-.9612,1.4286-.963h1.7404c.8477,0,1.535-.6872,1.535-1.535Z" fill="#485373" stroke="#2d3a68" stroke-miterlimit="10" stroke-width=".5577"/><circle cx="15.1541" cy="25.6601" r="6.1203" fill="none" stroke="#2d3a68" stroke-miterlimit="10" stroke-width=".5577"/></g></g></g></g></g></g></svg>