<?xml version="1.0" encoding="utf-8"?>
<!-- Generator: Adobe Illustrator 26.1.0, SVG Export Plug-In . SVG Version: 6.00 Build 0)  -->
<svg version="1.1"
	 id="svg1" inkscape:version="1.3 (0e150ed6c4, 2023-07-21)" sodipodi:docname="dessing interessant.svg" xmlns:inkscape="http://www.inkscape.org/namespaces/inkscape" xmlns:sodipodi="http://sodipodi.sourceforge.net/DTD/sodipodi-0.dtd" xmlns:svg="http://www.w3.org/2000/svg"
	 xmlns="http://www.w3.org/2000/svg" xmlns:xlink="http://www.w3.org/1999/xlink" x="0px" y="0px" viewBox="0 0 400.7 462.6"
	 style="enable-background:new 0 0 400.7 462.6;" xml:space="preserve">
<style type="text/css">
	.st0{fill:#26292F;}
	.st1{fill:#FFFFDF;}
	.st2{fill:url(#rect16_00000181808908909312094500000011768244081615795884_);}
	.st3{fill:url(#rect14_00000002344698776190067990000015230019382378938300_);}
	.st4{fill:#FE9000;}
	.st5{fill:url(#rect9_00000140705198536322706320000015859851060042209430_);}
	.st6{fill:url(#rect11_00000039105729699744694570000007833259715309313187_);}
	.st7{fill:url(#rect12_00000121258341945765200420000008258029472669825207_);}
</style>
<sodipodi:namedview  bordercolor="#111111" borderopacity="1" id="namedview1" inkscape:current-layer="layer1" inkscape:cx="-213.54625" inkscape:cy="1018.9409" inkscape:deskcolor="#d1d1d1" inkscape:document-units="px" inkscape:pagecheckerboard="1" inkscape:pageopacity="0" inkscape:showpageshadow="0" inkscape:window-height="2081" inkscape:window-maximized="1" inkscape:window-width="3840" inkscape:window-x="-9" inkscape:window-y="-9" inkscape:zoom="0.70710678" pagecolor="#ffffff">
	</sodipodi:namedview>
<g id="layer1" inkscape:groupmode="layer" inkscape:label="Calque 1">
	<g id="g18" inkscape:label="KUBE">
		
			<path id="path1" inkscape:flatsided="true" inkscape:randomized="0" inkscape:rounded="0" sodipodi:arg1="1.5707963" sodipodi:arg2="2.0943951" sodipodi:cx="206.77451" sodipodi:cy="61.977505" sodipodi:r1="260.4487" sodipodi:r2="225.55518" sodipodi:sides="6" sodipodi:type="star" class="st0" d="
			M200.3,462.6L0,347l0-231.3L200.3,0l200.3,115.7l0,231.3L200.3,462.6z"/>
		
			<path id="path2" inkscape:flatsided="true" inkscape:randomized="0" inkscape:rounded="0" sodipodi:arg1="1.5707963" sodipodi:arg2="2.0943951" sodipodi:cx="206.77451" sodipodi:cy="61.977505" sodipodi:r1="260.4487" sodipodi:r2="225.55518" sodipodi:sides="6" sodipodi:type="star" class="st1" d="
			M200.3,443.6L16.5,337.5l0-212.3L200.3,19l183.9,106.2l0,212.3L200.3,443.6z"/>
		
			<linearGradient id="rect16_00000035497584618514933620000002171968098678868921_" gradientUnits="userSpaceOnUse" x1="160.4751" y1="318.289" x2="292.4793" y2="467.0939" gradientTransform="matrix(-2.410279e-04 1.367 -1.1837 0.6837 751.3204 -284.5873)">
			<stop  offset="0" style="stop-color:#9E9D7A"/>
			<stop  offset="1" style="stop-color:#9D9D7B"/>
		</linearGradient>
		<polygon id="rect16" style="fill:url(#rect16_00000035497584618514933620000002171968098678868921_);" points="200.3,231.1 
			200.2,443.5 384.2,337.3 384.3,124.8 		"/>
		
			<linearGradient id="rect14_00000071532364225629719470000006070535966204287375_" gradientUnits="userSpaceOnUse" x1="198.7887" y1="333.1863" x2="330.7929" y2="481.9912" gradientTransform="matrix(1.1837 0.6837 2.410209e-04 1.367 -200.0668 -444.0676)">
			<stop  offset="0" style="stop-color:#E8E8C4"/>
			<stop  offset="1" style="stop-color:#B6B596"/>
		</linearGradient>
		<polygon id="rect14" style="fill:url(#rect14_00000071532364225629719470000006070535966204287375_);" points="16.3,337.5 
			200.3,443.8 200.3,231.3 16.3,125.1 		"/>
		
			<path id="path3" inkscape:flatsided="true" inkscape:randomized="0" inkscape:rounded="0" sodipodi:arg1="1.5707963" sodipodi:arg2="2.0943951" sodipodi:cx="206.77451" sodipodi:cy="61.977505" sodipodi:r1="260.4487" sodipodi:r2="225.55518" sodipodi:sides="6" sodipodi:type="star" class="st4" d="
			M200.3,386.8L65.7,309.1l0-155.5l134.7-77.8L335,153.6l0,155.5L200.3,386.8z"/>
		
			<linearGradient id="rect9_00000031919603399937646350000016277923571712849031_" gradientUnits="userSpaceOnUse" x1="183.2162" y1="537.7318" x2="335.8907" y2="384.9736" gradientTransform="matrix(0.8664 -0.5 0.8664 0.5 -424.2574 52.6504)">
			<stop  offset="0" style="stop-color:#FEE200"/>
			<stop  offset="1" style="stop-color:#FEA200"/>
		</linearGradient>
		<polygon id="rect9" style="fill:url(#rect9_00000031919603399937646350000016277923571712849031_);" points="200.3,231.3 
			335,153.6 200.3,75.8 65.7,153.6 		"/>
		
			<linearGradient id="rect11_00000059279743258490859460000016737595034105703813_" gradientUnits="userSpaceOnUse" x1="203.5999" y1="464.9965" x2="356.2744" y2="312.2384" gradientTransform="matrix(0.8662 0.5003 1.763697e-04 1.0003 -109.4791 -258.5543)">
			<stop  offset="0" style="stop-color:#E54300"/>
			<stop  offset="1" style="stop-color:#FE9000"/>
		</linearGradient>
		<polygon id="rect11" style="fill:url(#rect11_00000059279743258490859460000016737595034105703813_);" points="65.8,309.1 
			200.4,386.9 200.4,231.4 65.7,153.6 		"/>
		
			<linearGradient id="rect12_00000059311958650899735880000007427371426758301588_" gradientUnits="userSpaceOnUse" x1="110.4745" y1="590.1088" x2="263.149" y2="437.3506" gradientTransform="matrix(1.763748e-04 -1.0003 0.8662 -0.5003 -177.4863 713.8623)">
			<stop  offset="0" style="stop-color:#810C00"/>
			<stop  offset="1" style="stop-color:#FE5100"/>
		</linearGradient>
		<polygon id="rect12" style="fill:url(#rect12_00000059311958650899735880000007427371426758301588_);" points="334.8,308.8 
			334.9,153.3 200.2,231.1 200.2,386.6 		"/>
	</g>
	<path id="text18" class="st0" d="M263,299.3c0,1.5-0.6,3.5-1.8,5.9c-1.1,2.4-2.8,5.1-5,8.1c-2.1,2.9-4.8,6-7.9,9.3
		c-3,3.2-6.5,6.1-10.4,9c-2.1,1.6-4.9,3.6-8.4,5.8c-3.4,2.2-7.3,4.4-11.7,6.4c-4.4,1.9-9.2,3.6-14.5,4.9c-5.3,1.4-11,2.1-17.1,2.1
		c-7.1,0-13.3-1.4-18.4-4.3c-5.2-2.8-9.5-6.6-12.8-11.1c-3.4-4.7-5.8-9.9-7.5-15.7c-1.6-5.9-2.4-11.8-2.4-17.8c0-7.3,0.5-15,1.5-23
		c1.1-8,2.3-15.6,3.7-22.6c1.3-7.1,2.5-13.3,3.7-18.4c1.1-5.2,1.7-8.6,1.7-10.2c0-1.9,0.2-4.1,0.5-6.6c0.4-2.4,1.1-4.7,2-6.9
		c0.9-2.1,2.1-3.9,3.7-5.3c1.6-1.4,3.6-2.1,5.9-2.1c2.8,0,5.2,0.4,7.2,1.2c2,0.7,3.7,1.6,4.9,2.7c1.3,1.1,2.3,2.3,2.9,3.5
		c0.6,1.2,0.9,2.3,0.9,3.4c0,3-0.8,7.1-2.4,12c-1.5,4.9-3.3,10.5-5.2,16.8c-1.8,6.3-3.6,13.2-5.2,20.7c-1.5,7.4-2.3,15.2-2.3,23.5
		c0,4.1,0.2,8.4,0.6,13c0.5,4.5,1.5,8.6,2.9,12.3c1.5,3.8,3.7,6.9,6.6,9.5c2.8,2.4,6.7,3.7,11.6,3.7c4.1,0,8.2-0.6,12.5-1.8
		c4.4-1.3,8.6-2.9,12.7-4.9c4.1-2,7.9-4.2,11.4-6.6c3.6-2.3,6.7-4.5,9.3-6.6c2.6-2.1,5-4.1,7.2-5.9c2.2-1.9,4.3-3.6,6.1-5
		s3.5-2.5,4.9-3.4c1.4-0.9,2.7-1.4,3.8-1.4c2.3,0,3.8,0.6,4.3,1.8C262.7,296.6,263,297.9,263,299.3z M211,130.4c0,1-0.2,2.5-0.6,4.4
		c-0.4,1.9-1,4-1.7,6.3c-0.6,2.2-1.3,4.5-2.1,6.7c-0.8,2.1-1.6,4-2.3,5.5c-0.7,1.5-1.9,2.9-3.5,4.3c-1.6,1.2-3.4,2.3-5.3,3.2
		c-1.9,0.9-3.9,1.6-5.8,2.1c-1.9,0.5-3.5,0.8-4.7,0.8c-0.9,0-1.6-0.3-2.1-0.8c-0.5-0.5-0.9-1.2-1.2-2c-0.2-0.8-0.4-1.7-0.5-2.7
		c-0.1-1-0.2-2-0.3-2.9l-0.8-4.7c-0.2-0.9-0.5-1.7-0.9-2.3c-0.3-0.7-0.7-1.5-1.1-2.3c-0.4-0.8-0.8-1.8-1.1-2.9
		c-0.3-1.2-0.5-2.8-0.5-4.7c0-1.6,0.5-3.4,1.5-5.3c1.1-2,2.6-3.9,4.4-5.5c1.8-1.7,4-3.2,6.4-4.3c2.5-1.2,5.3-1.8,8.2-1.8
		c0.7,0,1.8,0.3,3.4,0.9c1.6,0.5,3.2,1.2,4.7,2.1c1.5,0.8,2.8,1.8,4,2.9C210.4,128.4,211,129.4,211,130.4z"/>
</g>
</svg>
