<?xml version="1.0" encoding="utf-8"?>
<!-- Generator: Adobe Illustrator 26.1.0, SVG Export Plug-In . SVG Version: 6.00 Build 0)  -->
<svg version="1.1"
	 id="svg1" xmlns:inkscape="http://www.inkscape.org/namespaces/inkscape" xmlns:sodipodi="http://sodipodi.sourceforge.net/DTD/sodipodi-0.dtd" xmlns:svg="http://www.w3.org/2000/svg"
	 xmlns="http://www.w3.org/2000/svg" xmlns:xlink="http://www.w3.org/1999/xlink" x="0px" y="0px" viewBox="0 0 462.6 462.6"
	 style="enable-background:new 0 0 462.6 462.6;" xml:space="preserve">
<style type="text/css">
	.st0{fill:#26292F;}
	.st1{fill:#FFFFDF;}
	.st2{fill:url(#rect16_00000054967637390612182510000007176583600413301687_);}
	.st3{fill:url(#rect14_00000040556855198915373640000006643452398977783177_);}
	.st4{fill:#FE9000;}
	.st5{fill:url(#rect9_00000117669319366272864190000004432814526347595694_);}
	.st6{fill:url(#rect11_00000062886223848959045260000017807605551202268336_);}
	.st7{fill:url(#rect12_00000144305297487454651210000010607377575047211910_);}
</style>
<sodipodi:namedview  bordercolor="#111111" borderopacity="1" id="namedview1" inkscape:current-layer="layer1" inkscape:cx="-213.54625" inkscape:cy="1018.9409" inkscape:deskcolor="#d1d1d1" inkscape:document-units="px" inkscape:pagecheckerboard="1" inkscape:pageopacity="0" inkscape:showpageshadow="0" inkscape:window-height="2081" inkscape:window-maximized="1" inkscape:window-width="3840" inkscape:window-x="-9" inkscape:window-y="-9" inkscape:zoom="0.70710678" pagecolor="#ffffff">
	</sodipodi:namedview>
<g id="layer1" inkscape:groupmode="layer" inkscape:label="Calque 1">
	<g id="g18" inkscape:label="KUBE">
		
			<path id="path1" inkscape:flatsided="true" inkscape:randomized="0" inkscape:rounded="0" sodipodi:arg1="1.5707963" sodipodi:arg2="2.0943951" sodipodi:cx="206.77451" sodipodi:cy="61.977505" sodipodi:r1="260.4487" sodipodi:r2="225.55518" sodipodi:sides="6" sodipodi:type="star" class="st0" d="
			M231.2,462.6L30.9,347V115.7L231.2,0l200.3,115.7V347L231.2,462.6z"/>
		
			<path id="path2" inkscape:flatsided="true" inkscape:randomized="0" inkscape:rounded="0" sodipodi:arg1="1.5707963" sodipodi:arg2="2.0943951" sodipodi:cx="206.77451" sodipodi:cy="61.977505" sodipodi:r1="260.4487" sodipodi:r2="225.55518" sodipodi:sides="6" sodipodi:type="star" class="st1" d="
			M231.2,443.6L47.4,337.5V125.2L231.2,19l183.9,106.2v212.3L231.2,443.6z"/>
		
			<linearGradient id="rect16_00000069368434098189964560000009023082246046647680_" gradientUnits="userSpaceOnUse" x1="128.5725" y1="254.2623" x2="260.5767" y2="105.4574" gradientTransform="matrix(-2.410279e-04 1.367 1.1837 -0.6837 104.5428 150.4835)">
			<stop  offset="0" style="stop-color:#9E9D7A"/>
			<stop  offset="1" style="stop-color:#9D9D7B"/>
		</linearGradient>
		<polygon id="rect16" style="fill:url(#rect16_00000069368434098189964560000009023082246046647680_);" points="231.2,231.1 
			231.1,443.5 415.1,337.3 415.2,124.8 		"/>
		
			<linearGradient id="rect14_00000099658809923763149360000011122763746064414343_" gradientUnits="userSpaceOnUse" x1="211.2945" y1="183.2597" x2="343.2987" y2="34.4548" gradientTransform="matrix(1.1837 0.6837 -2.410209e-04 -1.367 -183.7783 253.3562)">
			<stop  offset="0" style="stop-color:#E8E8C4"/>
			<stop  offset="1" style="stop-color:#B6B596"/>
		</linearGradient>
		<polygon id="rect14" style="fill:url(#rect14_00000099658809923763149360000011122763746064414343_);" points="47.2,337.5 
			231.2,443.8 231.2,231.3 47.2,125.1 		"/>
		
			<path id="path3" inkscape:flatsided="true" inkscape:randomized="0" inkscape:rounded="0" sodipodi:arg1="1.5707963" sodipodi:arg2="2.0943951" sodipodi:cx="206.77451" sodipodi:cy="61.977505" sodipodi:r1="260.4487" sodipodi:r2="225.55518" sodipodi:sides="6" sodipodi:type="star" class="st4" d="
			M231.2,386.8L96.6,309.1V153.6l134.7-77.8l134.6,77.8v155.5L231.2,386.8z"/>
		
			<linearGradient id="rect9_00000070120680532738317730000011230516509661440680_" gradientUnits="userSpaceOnUse" x1="155.8494" y1="-142.415" x2="308.5239" y2="10.3432" gradientTransform="matrix(0.8664 -0.5 -0.8664 -0.5 -27.0801 236.6254)">
			<stop  offset="0" style="stop-color:#FEE200"/>
			<stop  offset="1" style="stop-color:#FEA200"/>
		</linearGradient>
		<polygon id="rect9" style="fill:url(#rect9_00000070120680532738317730000011230516509661440680_);" points="231.2,231.3 
			365.9,153.6 231.2,75.8 96.6,153.6 		"/>
		
			<linearGradient id="rect11_00000038381551768677237720000012883610022333945008_" gradientUnits="userSpaceOnUse" x1="252.9467" y1="67.7208" x2="405.6212" y2="220.4788" gradientTransform="matrix(0.8662 0.5003 -1.763697e-04 -1.0003 -121.1769 249.6387)">
			<stop  offset="0" style="stop-color:#E54300"/>
			<stop  offset="1" style="stop-color:#FE9000"/>
		</linearGradient>
		<polygon id="rect11" style="fill:url(#rect11_00000038381551768677237720000012883610022333945008_);" points="96.8,309.1 
			231.3,386.9 231.3,231.4 96.6,153.6 		"/>
		
			<linearGradient id="rect12_00000050649767668497070630000015508930834675812788_" gradientUnits="userSpaceOnUse" x1="-54.2765" y1="-255.522" x2="98.398" y2="-102.7637" gradientTransform="matrix(1.763748e-04 -1.0003 -0.8662 0.5003 143.3256 381.6443)">
			<stop  offset="0" style="stop-color:#810C00"/>
			<stop  offset="1" style="stop-color:#FE5100"/>
		</linearGradient>
		<polygon id="rect12" style="fill:url(#rect12_00000050649767668497070630000015508930834675812788_);" points="365.7,308.8 
			365.8,153.3 231.1,231.1 231.1,386.6 		"/>
	</g>
	<path id="text18" class="st0" d="M293.9,299.3c0,1.5-0.6,3.5-1.8,5.9c-1.1,2.4-2.8,5.1-5,8.1c-2.1,2.9-4.8,6-7.9,9.3
		c-3,3.2-6.5,6.1-10.4,9c-2.1,1.6-4.9,3.6-8.4,5.8c-3.4,2.2-7.3,4.4-11.7,6.4c-4.4,1.9-9.2,3.6-14.5,4.9c-5.3,1.4-11,2.1-17.1,2.1
		c-7.1,0-13.3-1.4-18.4-4.3c-5.2-2.8-9.5-6.6-12.8-11.1c-3.4-4.7-5.8-9.9-7.5-15.7c-1.6-5.9-2.4-11.8-2.4-17.8c0-7.3,0.5-15,1.5-23
		c1.1-8,2.3-15.6,3.7-22.6c1.3-7.1,2.5-13.3,3.7-18.4c1.1-5.2,1.7-8.6,1.7-10.2c0-1.9,0.2-4.1,0.5-6.6c0.4-2.4,1.1-4.7,2-6.9
		c0.9-2.1,2.1-3.9,3.7-5.3c1.6-1.4,3.6-2.1,5.9-2.1c2.8,0,5.2,0.4,7.2,1.2c2,0.7,3.7,1.6,4.9,2.7c1.3,1.1,2.3,2.3,2.9,3.5
		c0.6,1.2,0.9,2.3,0.9,3.4c0,3-0.8,7.1-2.4,12c-1.5,4.9-3.3,10.5-5.2,16.8c-1.8,6.3-3.6,13.2-5.2,20.7c-1.5,7.4-2.3,15.2-2.3,23.5
		c0,4.1,0.2,8.4,0.6,13c0.5,4.5,1.5,8.6,2.9,12.3c1.5,3.8,3.7,6.9,6.6,9.5c2.8,2.4,6.7,3.7,11.6,3.7c4.1,0,8.2-0.6,12.5-1.8
		c4.4-1.3,8.6-2.9,12.7-4.9c4.1-2,7.9-4.2,11.4-6.6c3.6-2.3,6.7-4.5,9.3-6.6s5-4.1,7.2-5.9c2.2-1.9,4.3-3.6,6.1-5
		c1.8-1.4,3.5-2.5,4.9-3.4s2.7-1.4,3.8-1.4c2.3,0,3.8,0.6,4.3,1.8C293.6,296.6,293.9,297.9,293.9,299.3z M241.9,130.4
		c0,1-0.2,2.5-0.6,4.4c-0.4,1.9-1,4-1.7,6.3c-0.6,2.2-1.3,4.5-2.1,6.7c-0.8,2.1-1.6,4-2.3,5.5s-1.9,2.9-3.5,4.3
		c-1.6,1.2-3.4,2.3-5.3,3.2c-1.9,0.9-3.9,1.6-5.8,2.1c-1.9,0.5-3.5,0.8-4.7,0.8c-0.9,0-1.6-0.3-2.1-0.8s-0.9-1.2-1.2-2
		c-0.2-0.8-0.4-1.7-0.5-2.7s-0.2-2-0.3-2.9l-0.8-4.7c-0.2-0.9-0.5-1.7-0.9-2.3c-0.3-0.7-0.7-1.5-1.1-2.3c-0.4-0.8-0.8-1.8-1.1-2.9
		c-0.3-1.2-0.5-2.8-0.5-4.7c0-1.6,0.5-3.4,1.5-5.3c1.1-2,2.6-3.9,4.4-5.5c1.8-1.7,4-3.2,6.4-4.3c2.5-1.2,5.3-1.8,8.2-1.8
		c0.7,0,1.8,0.3,3.4,0.9c1.6,0.5,3.2,1.2,4.7,2.1c1.5,0.8,2.8,1.8,4,2.9C241.3,128.4,241.9,129.4,241.9,130.4z"/>
</g>
</svg>
